<svg width="680" height="631" viewBox="0 0 680 631" fill="none" xmlns="http://www.w3.org/2000/svg">
<g clip-path="url(#clip0_8607_797)">
<path d="M55.6266 605.649L68.5705 609.049L87.8428 560.727L68.7378 555.71L55.6266 605.649Z" fill="#A0616A"/>
<path d="M51.6244 619.035L91.4304 629.49L91.5626 628.987C92.6415 624.877 92.044 620.507 89.9016 616.837C87.7591 613.168 84.2472 610.5 80.1382 609.421L80.1373 609.42L74.315 601.993L59.2999 603.948L55.8251 603.035L51.6244 619.035Z" fill="#2F2E41"/>
<path d="M121.985 615.335L135.368 615.334L141.735 563.702L121.982 563.703L121.985 615.335Z" fill="#A0616A"/>
<path d="M121.514 629.299L162.669 629.298V628.777C162.669 624.528 160.981 620.453 157.977 617.448C154.973 614.444 150.899 612.755 146.65 612.755H146.649L139.132 607.051L125.106 612.756L121.513 612.756L121.514 629.299Z" fill="#2F2E41"/>
<path d="M88.5112 368.255C85.2783 372.297 86.8948 386.039 86.8948 386.039C86.8948 386.039 81.2371 430.501 83.6618 434.543C86.0865 438.585 82.0454 441.819 79.6206 447.477C77.1959 453.136 74.7712 466.879 74.7712 466.879C61.0312 478.196 61.8394 529.934 61.8394 529.934L56.99 576.012C58.6065 580.862 81.2371 581.671 84.4701 580.862C87.703 580.054 119.224 466.07 119.224 466.07C119.224 466.07 117.608 576.012 117.608 580.862C117.608 585.713 139.43 583.288 144.28 583.288C149.129 583.288 179.842 385.231 179.842 385.231V373.913L175.801 368.255C175.801 368.255 91.7442 364.213 88.5112 368.255Z" fill="#2F2E41"/>
<path d="M124.074 220.318C137.911 220.318 149.129 209.099 149.129 195.258C149.129 181.418 137.911 170.198 124.074 170.198C110.236 170.198 99.0183 181.418 99.0183 195.258C99.0183 209.099 110.236 220.318 124.074 220.318Z" fill="#A0616A"/>
<path d="M90.4114 386.133L90.2747 385.941C82.976 375.721 93.9532 351.162 95.6089 347.602C93.6428 346.964 91.9588 345.664 90.8435 343.923C89.7282 342.182 89.2506 340.109 89.4921 338.056L90.2058 331.988L90.9498 326.036L85.6201 320.705L85.6051 320.572L82.538 293.73L78.0785 275.901C76.3982 269.161 76.5414 262.095 78.4934 255.429C80.4454 248.763 84.1359 242.737 89.186 237.968L99.4941 236.331L112.022 224.258H132.224L139.151 230.878C152.769 242.043 156.002 237.193 171.359 258.211L160.363 287.185L166.509 329.919L166.513 337.653L169.714 341.211C170.867 342.492 171.705 344.026 172.161 345.689C172.617 347.351 172.678 349.098 172.34 350.788L171.919 352.893C173.546 353.591 174.982 354.668 176.107 356.035C177.231 357.402 178.012 359.019 178.383 360.75L179.507 365.998C180.469 367.267 186.818 375.734 186.818 378.049C186.818 378.396 186.561 378.732 186.011 379.105C181.684 382.035 157.77 388.009 147.186 383.773C135.912 379.264 91.0958 386.028 90.6442 386.097L90.4114 386.133Z" fill="#3F3D56"/>
<path d="M77.6825 284.476L98.5155 280.397C106.22 291.905 110.356 323.373 110.356 323.373L133.389 371.15C134.805 372.01 135.967 373.23 136.758 374.686C137.549 376.142 137.94 377.781 137.892 379.438C137.843 381.094 137.356 382.707 136.481 384.114C135.606 385.521 134.374 386.671 132.91 387.446C131.446 388.222 129.803 388.595 128.148 388.529C126.493 388.462 124.885 387.959 123.487 387.068C122.09 386.178 120.954 384.934 120.194 383.461C119.435 381.989 119.079 380.342 119.162 378.687L89.1214 322.08L77.6825 284.476Z" fill="#A0616A"/>
<path d="M77.5659 289.42L76.9735 258.45L86.7774 245.332C88.7115 242.763 91.3252 240.787 94.3232 239.627C97.3212 238.466 100.584 238.167 103.743 238.764C108.019 239.602 111.818 242.033 114.372 245.565C116.925 249.097 118.042 253.467 117.497 257.792C115.833 270.906 112.055 287.317 103.508 291.03L103.421 291.067L112.279 322.054L79.4284 326.644L77.5659 289.42Z" fill="#3F3D56"/>
<path d="M201.295 286.683C201.295 286.683 176.294 267.138 162.735 264.33L150.733 281.844L183.191 301.739L246.384 320.014C247.49 321.243 248.902 322.157 250.477 322.664C252.051 323.171 253.731 323.253 255.347 322.9C256.963 322.547 258.456 321.773 259.676 320.657C260.896 319.54 261.799 318.12 262.293 316.542C262.788 314.963 262.855 313.282 262.49 311.669C262.124 310.056 261.339 308.568 260.212 307.357C259.086 306.145 257.659 305.254 256.077 304.772C254.495 304.291 252.814 304.237 251.204 304.615L201.295 286.683Z" fill="#A0616A"/>
<path d="M157.31 290.611L131.255 273.867L125.814 258.419C124.757 255.383 124.571 252.111 125.275 248.974C125.98 245.837 127.547 242.959 129.801 240.666C132.877 237.579 137.011 235.775 141.366 235.619C145.721 235.463 149.973 236.967 153.261 239.827C163.228 248.508 176.073 251.418 174.4 260.587L179.199 261.288L203.737 279.927L189.267 309.78L157.31 290.611Z" fill="#3F3D56"/>
<path d="M95.654 178.792C98.4674 174.439 103.747 171.537 108.865 172.352C109.342 169.085 110.705 166.012 112.807 163.466C114.909 160.921 117.669 159 120.786 157.915C123.904 156.83 127.259 156.621 130.487 157.31C133.715 158 136.692 159.563 139.094 161.828C139.884 161.271 140.804 160.929 141.765 160.832C142.726 160.736 143.696 160.89 144.58 161.278C146.341 162.08 147.874 163.31 149.037 164.857C151.974 168.52 153.863 172.911 154.502 177.563C155.142 182.215 154.509 186.953 152.67 191.273C153.295 188.999 151.016 186.859 148.714 186.348C146.411 185.838 143.996 186.321 141.661 185.989C138.669 185.563 135.979 183.826 132.981 183.436C130.44 183.27 127.89 183.598 125.472 184.401C123.056 185.203 120.51 185.545 117.967 185.409C115.444 185.109 112.194 194.671 112.238 201.406C112.246 202.683 111.983 204.321 110.736 204.592C109.201 204.926 108.311 202.806 106.849 202.228C106.175 202.035 105.453 202.111 104.834 202.44C104.215 202.769 103.748 203.326 103.532 203.992C103.348 204.67 103.328 205.382 103.474 206.069C103.621 206.756 103.929 207.398 104.374 207.941C105.272 209.019 106.339 209.944 107.532 210.682L106.93 211.183C105.929 212.506 103.852 212.563 102.408 211.745C101.028 210.81 99.9103 209.537 99.1616 208.047C96.4912 203.605 94.1488 198.871 93.2063 193.774C92.2639 188.677 92.8408 183.145 95.654 178.792Z" fill="#2F2E41"/>
<path d="M679.017 36.1846H53.1784C52.9157 36.1789 52.6657 36.0704 52.482 35.8826C52.2982 35.6947 52.1953 35.4423 52.1953 35.1795C52.1953 34.9167 52.2982 34.6643 52.482 34.4765C52.6657 34.2886 52.9157 34.1801 53.1784 34.1744H679.017C679.28 34.1801 679.53 34.2886 679.713 34.4765C679.897 34.6643 680 34.9167 680 35.1795C680 35.4423 679.897 35.6947 679.713 35.8826C679.53 36.0704 679.28 36.1789 679.017 36.1846Z" fill="#CACACA"/>
<path d="M75.3043 22.1128C81.2763 22.1128 86.1176 17.1627 86.1176 11.0564C86.1176 4.95013 81.2763 0 75.3043 0C69.3323 0 64.491 4.95013 64.491 11.0564C64.491 17.1627 69.3323 22.1128 75.3043 22.1128Z" fill="#3F3D56"/>
<path d="M112.659 22.1128C118.631 22.1128 123.473 17.1627 123.473 11.0564C123.473 4.95013 118.631 0 112.659 0C106.687 0 101.846 4.95013 101.846 11.0564C101.846 17.1627 106.687 22.1128 112.659 22.1128Z" fill="#3F3D56"/>
<path d="M150.014 22.1128C155.986 22.1128 160.828 17.1627 160.828 11.0564C160.828 4.95013 155.986 0 150.014 0C144.042 0 139.201 4.95013 139.201 11.0564C139.201 17.1627 144.042 22.1128 150.014 22.1128Z" fill="#3F3D56"/>
<path d="M656.632 2.74045H630.097C629.571 2.75089 629.07 2.96719 628.702 3.34292C628.333 3.71865 628.127 4.22385 628.127 4.75002C628.127 5.27619 628.333 5.78137 628.702 6.1571C629.07 6.53283 629.571 6.74915 630.097 6.75959H656.632C657.158 6.74915 657.659 6.53283 658.027 6.1571C658.395 5.78137 658.602 5.27619 658.602 4.75002C658.602 4.22385 658.395 3.71865 658.027 3.34292C657.659 2.96719 657.158 2.75089 656.632 2.74045Z" fill="#3F3D56"/>
<path d="M656.632 10.2838H630.097C629.571 10.2942 629.07 10.5105 628.702 10.8863C628.333 11.262 628.127 11.7672 628.127 12.2933C628.127 12.8195 628.333 13.3247 628.702 13.7004C629.07 14.0762 629.571 14.2925 630.097 14.3029H656.632C657.158 14.2925 657.659 14.0762 658.027 13.7004C658.395 13.3247 658.602 12.8195 658.602 12.2933C658.602 11.7672 658.395 11.262 658.027 10.8863C657.659 10.5105 657.158 10.2942 656.632 10.2838Z" fill="#3F3D56"/>
<path d="M656.632 17.8172H630.097C629.571 17.8276 629.07 18.0439 628.702 18.4196C628.333 18.7954 628.127 19.3006 628.127 19.8267C628.127 20.3529 628.333 20.8581 628.702 21.2338C629.07 21.6096 629.571 21.8259 630.097 21.8363H656.632C657.158 21.8259 657.659 21.6096 658.027 21.2338C658.395 20.8581 658.602 20.3529 658.602 19.8267C658.602 19.3006 658.395 18.7954 658.027 18.4196C657.659 18.0439 657.158 17.8276 656.632 17.8172Z" fill="#3F3D56"/>
<path d="M622.922 76.1157H109.274C106.429 76.1199 103.703 77.2518 101.692 79.2634C99.6806 81.2749 98.5489 84.0019 98.5446 86.8466V88.5771C98.5489 91.4219 99.6806 94.1489 101.692 96.1604C103.703 98.1719 106.429 99.3039 109.274 99.3081H622.922C625.766 99.3039 628.493 98.1719 630.504 96.1604C632.515 94.1489 633.647 91.4219 633.651 88.5771V86.8466C633.647 84.0019 632.515 81.2749 630.504 79.2634C628.493 77.2518 625.766 76.1199 622.922 76.1157Z" fill="#F0F0F0"/>
<path d="M171.261 91.9938H122.368C121.273 91.9938 120.223 91.5587 119.448 90.7843C118.674 90.0098 118.239 88.9594 118.239 87.8642C118.239 86.769 118.674 85.7186 119.448 84.9442C120.223 84.1697 121.273 83.7347 122.368 83.7347H171.261C176.586 83.6603 176.639 92.0688 171.261 91.9938Z" fill="white"/>
<path d="M317.524 91.9938H268.63C267.535 91.9938 266.485 91.5587 265.711 90.7843C264.937 90.0098 264.502 88.9594 264.502 87.8642C264.502 86.769 264.937 85.7186 265.711 84.9442C266.485 84.1697 267.535 83.7347 268.63 83.7347H317.524C322.848 83.6603 322.901 92.0688 317.524 91.9938Z" fill="white"/>
<path d="M463.786 91.9938H414.893C413.798 91.9938 412.747 91.5587 411.973 90.7843C411.199 90.0098 410.764 88.9594 410.764 87.8642C410.764 86.769 411.199 85.7186 411.973 84.9442C412.747 84.1697 413.798 83.7347 414.893 83.7347H463.786C469.111 83.6603 469.164 92.0688 463.786 91.9938Z" fill="white"/>
<path d="M602.468 92.4398H553.574C552.479 92.4398 551.429 92.0047 550.655 91.2303C549.881 90.4558 549.446 89.4055 549.446 88.3102C549.446 87.215 549.881 86.1646 550.655 85.3902C551.429 84.6157 552.479 84.1807 553.574 84.1807H602.468C607.792 84.1063 607.846 92.5148 602.468 92.4398Z" fill="#1976D2"/>
<path d="M526.184 76.1157H524.4V99.3081H526.184V76.1157Z" fill="white"/>
<path d="M267.951 301.85C267.878 301.85 267.805 301.849 267.731 301.846C266.872 301.814 266.034 301.576 265.287 301.151C264.54 300.727 263.907 300.127 263.441 299.405C259.952 294.19 255.671 289.552 250.752 285.658C247.775 283.277 244.663 281.064 241.654 278.923C233.891 273.402 226.58 268.202 222.522 261.018C213.673 245.351 224.094 223.53 238.98 213.743C255.676 202.768 277.638 201.046 298.884 200.82C301.092 200.797 303.301 200.785 305.512 200.786C343.792 200.8 381.992 204.294 419.64 211.223C432.159 213.533 445.263 216.363 455.793 223.231C466.261 230.058 472.624 240.809 472.003 250.622C471.097 264.946 455.915 275.65 442.09 278.448C428.913 281.113 415.224 279.312 400.732 277.405C397.533 276.984 394.225 276.549 390.954 276.17C355.402 272.06 288.616 284.729 285.791 285.27L282.988 285.807L272.111 299.806C271.622 300.444 270.992 300.961 270.27 301.315C269.548 301.67 268.755 301.853 267.951 301.85Z" fill="#1976D2"/>
<path d="M426.266 231.97H276.001C275.134 231.97 274.303 231.626 273.69 231.012C273.076 230.399 272.732 229.567 272.732 228.7C272.732 227.833 273.076 227.001 273.69 226.388C274.303 225.774 275.134 225.43 276.001 225.43H426.266C427.133 225.43 427.965 225.774 428.578 226.388C429.191 227.001 429.535 227.833 429.535 228.7C429.535 229.567 429.191 230.399 428.578 231.012C427.965 231.626 427.133 231.97 426.266 231.97Z" fill="white"/>
<path d="M426.266 252.042H276.001C275.572 252.043 275.147 251.958 274.75 251.794C274.353 251.631 273.992 251.39 273.689 251.087C273.385 250.783 273.143 250.423 272.979 250.027C272.814 249.63 272.729 249.205 272.729 248.775C272.728 248.346 272.812 247.921 272.976 247.524C273.14 247.127 273.38 246.766 273.684 246.462C273.987 246.158 274.347 245.917 274.744 245.752C275.14 245.587 275.565 245.502 275.995 245.502H426.266C427.133 245.502 427.965 245.846 428.578 246.46C429.191 247.073 429.535 247.905 429.535 248.772C429.535 249.639 429.191 250.471 428.578 251.084C427.965 251.698 427.133 252.042 426.266 252.042Z" fill="white"/>
<path d="M293.512 272.114H276.001C275.134 272.114 274.303 271.769 273.69 271.156C273.076 270.543 272.732 269.711 272.732 268.844C272.732 267.976 273.076 267.145 273.69 266.531C274.303 265.918 275.134 265.573 276.001 265.573H293.512C294.38 265.573 295.211 265.918 295.824 266.531C296.437 267.145 296.782 267.976 296.782 268.844C296.782 269.711 296.437 270.543 295.824 271.156C295.211 271.769 294.38 272.114 293.512 272.114Z" fill="white"/>
<path d="M536.289 406.372L527.625 395.221L525.392 394.793C523.142 394.362 469.944 384.271 441.626 387.545C439.02 387.846 436.385 388.193 433.837 388.528C422.293 390.048 411.39 391.482 400.894 389.359C389.882 387.13 377.789 378.605 377.067 367.195C376.572 359.379 381.64 350.815 389.978 345.377C398.366 339.906 408.804 337.652 418.776 335.812C448.764 330.292 479.192 327.51 509.684 327.498C511.445 327.498 513.205 327.507 514.963 327.526C531.886 327.705 549.38 329.077 562.68 337.819C574.537 345.615 582.837 362.996 575.789 375.475C572.556 381.198 566.733 385.34 560.549 389.738C558.153 391.443 555.674 393.206 553.302 395.102C549.384 398.204 545.974 401.899 543.195 406.053C542.824 406.628 542.32 407.105 541.725 407.444C541.13 407.782 540.462 407.972 539.778 407.996C539.719 407.999 539.661 408 539.603 408C538.962 408.002 538.33 407.856 537.755 407.574C537.181 407.292 536.679 406.88 536.289 406.372Z" fill="#F2F2F2"/>
<path d="M413.498 352.338H533.19C533.88 352.336 534.541 352.061 535.028 351.573C535.516 351.085 535.789 350.423 535.789 349.733C535.789 349.043 535.516 348.381 535.028 347.893C534.541 347.405 533.88 347.13 533.19 347.128H413.498C412.808 347.13 412.147 347.405 411.66 347.893C411.173 348.381 410.899 349.043 410.899 349.733C410.899 350.423 411.173 351.085 411.66 351.573C412.147 352.061 412.808 352.336 413.498 352.338Z" fill="white"/>
<path d="M413.498 368.326H533.19C533.532 368.327 533.872 368.26 534.188 368.13C534.505 368 534.793 367.808 535.035 367.566C535.278 367.325 535.47 367.038 535.602 366.722C535.733 366.405 535.801 366.066 535.801 365.724C535.802 365.382 535.735 365.042 535.604 364.726C535.473 364.41 535.281 364.122 535.039 363.88C534.797 363.638 534.51 363.446 534.193 363.315C533.877 363.184 533.538 363.116 533.195 363.116H413.498C412.808 363.118 412.147 363.393 411.66 363.881C411.173 364.37 410.899 365.031 410.899 365.721C410.899 366.411 411.173 367.073 411.66 367.561C412.147 368.05 412.808 368.325 413.498 368.326Z" fill="white"/>
<path d="M519.242 384.314H533.19C533.881 384.314 534.543 384.039 535.032 383.551C535.52 383.062 535.794 382.4 535.794 381.709C535.794 381.018 535.52 380.356 535.032 379.867C534.543 379.379 533.881 379.104 533.19 379.104H519.242C518.551 379.104 517.889 379.379 517.4 379.867C516.912 380.356 516.638 381.018 516.638 381.709C516.638 382.4 516.912 383.062 517.4 383.551C517.889 384.039 518.551 384.314 519.242 384.314Z" fill="white"/>
<path d="M269.806 324.648C278.583 324.648 285.698 317.531 285.698 308.752C285.698 299.974 278.583 292.857 269.806 292.857C261.029 292.857 253.914 299.974 253.914 308.752C253.914 317.531 261.029 324.648 269.806 324.648Z" fill="white"/>
<path d="M269.806 324.842C266.625 324.842 263.515 323.898 260.869 322.13C258.224 320.362 256.162 317.85 254.945 314.91C253.727 311.97 253.408 308.735 254.029 305.614C254.65 302.493 256.182 299.626 258.432 297.376C260.681 295.126 263.548 293.593 266.668 292.972C269.788 292.352 273.023 292.67 275.962 293.888C278.902 295.106 281.414 297.168 283.181 299.814C284.949 302.46 285.893 305.57 285.893 308.752C285.888 313.018 284.191 317.108 281.176 320.124C278.16 323.14 274.071 324.837 269.806 324.842Z" fill="#3F3D56"/>
<path d="M268.616 315.105C268.583 315.105 268.549 315.104 268.515 315.102C268.215 315.088 267.923 315.009 267.657 314.871C267.391 314.733 267.158 314.538 266.974 314.302L264.318 310.887C264.151 310.671 264.027 310.425 263.955 310.161C263.882 309.898 263.862 309.623 263.896 309.352C263.93 309.081 264.017 308.819 264.152 308.582C264.287 308.344 264.467 308.136 264.683 307.968L264.778 307.894C264.994 307.726 265.24 307.602 265.504 307.53C265.767 307.457 266.042 307.437 266.313 307.471C266.584 307.505 266.846 307.592 267.083 307.727C267.321 307.862 267.529 308.043 267.697 308.258C267.831 308.431 268.001 308.572 268.195 308.673C268.388 308.773 268.602 308.831 268.82 308.841C269.038 308.852 269.255 308.815 269.458 308.734C269.661 308.653 269.843 308.529 269.994 308.37L275.386 302.676C275.766 302.276 276.288 302.043 276.839 302.028C277.391 302.013 277.925 302.218 278.326 302.596L278.414 302.681C278.613 302.868 278.772 303.094 278.883 303.343C278.995 303.592 279.056 303.861 279.063 304.134C279.07 304.407 279.024 304.679 278.926 304.934C278.829 305.189 278.682 305.423 278.494 305.621L270.125 314.456C269.931 314.661 269.697 314.824 269.438 314.936C269.178 315.048 268.899 315.105 268.616 315.105Z" fill="white"/>
<path d="M540.566 430.062C549.343 430.062 556.459 422.946 556.459 414.167C556.459 405.388 549.343 398.272 540.566 398.272C531.789 398.272 524.674 405.388 524.674 414.167C524.674 422.946 531.789 430.062 540.566 430.062Z" fill="white"/>
<path d="M540.566 430.257C537.385 430.257 534.275 429.313 531.629 427.545C528.984 425.777 526.922 423.264 525.705 420.324C524.487 417.384 524.169 414.149 524.789 411.028C525.41 407.907 526.942 405.04 529.192 402.79C531.441 400.54 534.308 399.008 537.428 398.387C540.549 397.766 543.783 398.085 546.722 399.303C549.662 400.52 552.174 402.583 553.942 405.228C555.709 407.874 556.653 410.985 556.653 414.167C556.648 418.433 554.952 422.522 551.936 425.539C548.92 428.555 544.831 430.252 540.566 430.257Z" fill="#E6E6E6"/>
<path d="M539.377 420.52C539.343 420.52 539.309 420.519 539.275 420.517C538.976 420.503 538.683 420.424 538.417 420.285C538.151 420.147 537.918 419.953 537.734 419.716L535.079 416.301C534.911 416.086 534.787 415.839 534.715 415.576C534.642 415.313 534.622 415.038 534.656 414.766C534.69 414.495 534.777 414.234 534.912 413.996C535.047 413.759 535.227 413.55 535.443 413.383L535.539 413.308C535.754 413.14 536.001 413.017 536.264 412.944C536.527 412.872 536.802 412.852 537.073 412.886C537.344 412.92 537.606 413.007 537.844 413.142C538.081 413.277 538.29 413.457 538.457 413.673C538.591 413.845 538.761 413.987 538.955 414.087C539.149 414.188 539.362 414.245 539.58 414.256C539.798 414.267 540.016 414.23 540.218 414.149C540.421 414.067 540.604 413.943 540.754 413.785L546.146 408.091C546.526 407.691 547.049 407.458 547.6 407.443C548.151 407.428 548.685 407.632 549.086 408.011L549.175 408.095C549.373 408.283 549.532 408.508 549.644 408.757C549.755 409.007 549.816 409.276 549.823 409.549C549.831 409.822 549.784 410.094 549.686 410.349C549.589 410.604 549.442 410.837 549.254 411.035L540.886 419.87C540.691 420.075 540.457 420.239 540.198 420.351C539.939 420.462 539.659 420.52 539.377 420.52Z" fill="white"/>
<path d="M246.842 613.691L239.211 601.426L237.686 608.434C237.419 609.662 237.152 610.909 236.905 612.147C234.737 610.295 232.431 608.583 230.175 606.94C223.246 601.911 216.321 596.875 209.4 591.833L211.567 604.405C212.903 612.147 214.299 620.046 217.605 627.124C217.971 627.926 218.367 628.718 218.792 629.49H250.999C251.258 628.773 251.437 628.029 251.533 627.273C251.541 627.224 251.544 627.174 251.543 627.124C252.048 622.323 249.395 617.799 246.842 613.691Z" fill="#F0F0F0"/>
<path d="M274.1 630.696L1.17847 631C0.866508 630.999 0.567627 630.874 0.347357 630.654C0.127088 630.433 0.00338745 630.133 0.00338745 629.821C0.00338745 629.509 0.127088 629.21 0.347357 628.989C0.567627 628.768 0.866508 628.643 1.17847 628.643L274.1 628.338C274.256 628.338 274.409 628.368 274.553 628.427C274.696 628.486 274.826 628.573 274.936 628.682C275.046 628.792 275.133 628.922 275.192 629.065C275.252 629.208 275.282 629.362 275.282 629.517C275.282 629.672 275.252 629.826 275.192 629.969C275.133 630.112 275.046 630.242 274.936 630.352C274.826 630.461 274.696 630.548 274.553 630.607C274.409 630.666 274.256 630.696 274.1 630.696Z" fill="#CACACA"/>
</g>
<defs>
<clipPath id="clip0_8607_797">
<rect width="680" height="631" fill="white"/>
</clipPath>
</defs>
</svg>
